<?xml version="1.0" encoding="UTF-8" standalone="no"?>
<!DOCTYPE svg PUBLIC "-//W3C//DTD SVG 1.1//EN"
 "http://www.w3.org/Graphics/SVG/1.1/DTD/svg11.dtd">
<!-- Generated by graphviz version 2.40.1 (20161225.0304)
 -->
<!-- Title: g Pages: 1 -->
<svg width="782pt" height="620pt"
 viewBox="0.00 0.00 782.00 620.00" xmlns="http://www.w3.org/2000/svg" xmlns:xlink="http://www.w3.org/1999/xlink">
<g id="graph0" class="graph" transform="scale(1 1) rotate(0) translate(4 616)">
<title>g</title>
<!-- root -->
<g id="node1" class="node">
<title>root</title>
<ellipse fill="#ffffff" stroke="#000000" cx="387" cy="-522" rx="90" ry="90"/>
<text text-anchor="middle" x="387" y="-516" font-family="Helvetica,sans-Serif" font-size="20.00" fill="#000000">cljsjs&#45;aframe</text>
</g>
<!-- cljsjs -->
<g id="node2" class="node">
<title>cljsjs</title>
<ellipse fill="#ffffff" stroke="#000000" cx="288" cy="-306" rx="90" ry="90"/>
<text text-anchor="middle" x="288" y="-300" font-family="Helvetica,sans-Serif" font-size="20.00" fill="#000000">CLJSJS</text>
</g>
<!-- root&#45;&#45;cljsjs -->
<g id="edge1" class="edge">
<title>root&#45;&#45;cljsjs</title>
<path fill="none" stroke="#000000" stroke-width=".75" d="M349.4312,-440.0317C341.6091,-422.9653 333.3643,-404.9767 325.5432,-387.9124"/>
</g>
<!-- aframe -->
<g id="node5" class="node">
<title>aframe</title>
<ellipse fill="#ffffff" stroke="#000000" cx="486" cy="-306" rx="90" ry="90"/>
<text text-anchor="middle" x="486" y="-300" font-family="Helvetica,sans-Serif" font-size="20.00" fill="#000000">A&#45;Frame</text>
</g>
<!-- root&#45;&#45;aframe -->
<g id="edge4" class="edge">
<title>root&#45;&#45;aframe</title>
<path fill="none" stroke="#000000" stroke-width=".75" d="M424.5688,-440.0317C432.3909,-422.9653 440.6357,-404.9767 448.4568,-387.9124"/>
</g>
<!-- clojure -->
<g id="node3" class="node">
<title>clojure</title>
<ellipse fill="#ffffff" stroke="#000000" cx="90" cy="-90" rx="90" ry="90"/>
<text text-anchor="middle" x="90" y="-84" font-family="Helvetica,sans-Serif" font-size="20.00" fill="#000000">Clojure</text>
</g>
<!-- cljsjs&#45;&#45;clojure -->
<g id="edge2" class="edge">
<title>cljsjs&#45;&#45;clojure</title>
<path fill="none" stroke="#000000" stroke-width=".75" d="M226.9779,-239.4304C202.7753,-213.0276 175.0034,-182.7309 150.8207,-156.3498"/>
</g>
<!-- js -->
<g id="node4" class="node">
<title>js</title>
<ellipse fill="#ffffff" stroke="#000000" cx="288" cy="-90" rx="90" ry="90"/>
<text text-anchor="middle" x="288" y="-84" font-family="Helvetica,sans-Serif" font-size="20.00" fill="#000000">Javascript</text>
</g>
<!-- cljsjs&#45;&#45;js -->
<g id="edge3" class="edge">
<title>cljsjs&#45;&#45;js</title>
<path fill="none" stroke="#000000" stroke-width=".75" d="M288,-215.9606C288,-204.1534 288,-192.0514 288,-180.2408"/>
</g>
<!-- components -->
<g id="node6" class="node">
<title>components</title>
<ellipse fill="#ffffff" stroke="#000000" cx="486" cy="-90" rx="90" ry="90"/>
<text text-anchor="middle" x="486" y="-84" font-family="Helvetica,sans-Serif" font-size="20.00" fill="#000000">custom JS markup</text>
</g>
<!-- aframe&#45;&#45;components -->
<g id="edge5" class="edge">
<title>aframe&#45;&#45;components</title>
<path fill="none" stroke="#000000" stroke-width=".75" d="M486,-215.9606C486,-204.1534 486,-192.0514 486,-180.2408"/>
</g>
<!-- webcomponents -->
<g id="node7" class="node">
<title>webcomponents</title>
<ellipse fill="#ffffff" stroke="#000000" cx="684" cy="-90" rx="90" ry="90"/>
<text text-anchor="middle" x="684" y="-84" font-family="Helvetica,sans-Serif" font-size="20.00" fill="#000000">web components</text>
</g>
<!-- aframe&#45;&#45;webcomponents -->
<g id="edge6" class="edge">
<title>aframe&#45;&#45;webcomponents</title>
<path fill="none" stroke="#000000" stroke-width=".75" d="M547.0221,-239.4304C571.2247,-213.0276 598.9966,-182.7309 623.1793,-156.3498"/>
</g>
</g>
</svg>
